<svg width="500" height="136" xmlns="http://www.w3.org/2000/svg" xmlns:xlink="http://www.w3.org/1999/xlink" xml:space="preserve" overflow="hidden"><g transform="translate(-390 -292)"><path d="M11.5208-19.375 11.5208 0 5.52083 0 5.52083-40.6042 18.7708-40.6042C22.8958-40.6042 26.276-39.6771 28.9167-37.8333 31.5521-36 32.875-33.5729 32.875-30.5625 32.875-27.5625 31.8177-25.1927 29.7083-23.4583 27.6094-21.7188 24.7604-20.526 21.1667-19.875L37.6042 0 30.4792 0.854167 16.25-19.375ZM11.5208-21.2292 15.4583-21.2292C22.8177-21.2292 26.5-24.1302 26.5-29.9375 26.5-30.9062 26.25-32.0104 25.75-33.25 24.8177-35.8177 22.8177-37.5104 19.75-38.3333 16.9688-38.3333 14.2292-37.9844 11.5208-37.2917Z" fill="#121212" transform="matrix(1 0 0 1.00203 524.4 367.599)"/><path d="M0.604167 0 18.8333-41.5833 19.75-41.5833 37.9583 0 31.2708 0 26.6875-11.0417 8.45833-11.0417 3.91667 0ZM9.375-13.375 25.7083-13.375 17.6042-33.25Z" fill="#121212" transform="matrix(1 0 0 1.00203 571.93 367.599)"/><path d="M11.1667-40.6042 11.1667 0 5.52083 0 5.52083-40.6042Z" fill="#121212" transform="matrix(1 0 0 1.00203 618.908 367.599)"/><path d="M36.375 0.666667 35.3333 0.666667 8.45833-32.9375 8.20833-32.9375 8.20833 0 5.52083 0 5.52083-40.6042 10.0625-40.6042 33.4167-11.1042 33.6667-11.1042 33.6667-40.6042 36.375-40.6042Z" fill="#121212" transform="matrix(1 0 0 1.00203 643.992 367.599)"/><path d="M11.1667-40.6042 11.1667 0 5.52083 0 5.52083-40.6042Z" fill="#121212" transform="matrix(1 0 0 1.00203 694.282 367.599)"/><path d="M5.52083 0 5.52083-40.6042 30.125-40.6042 29.5-36.5 18.0833-38.3958C16.0833-38.3958 13.8802-38.0469 11.4792-37.3542L11.4792-22.4583 25.0833-22.4583 25.0833-20.125 11.4792-20.125 11.4792-2.20833 30.4792-4.10417 29.875 0Z" fill="#121212" transform="matrix(1 0 0 1.00203 719.366 367.599)"/><path d="M11.5208-19.375 11.5208 0 5.52083 0 5.52083-40.6042 18.7708-40.6042C22.8958-40.6042 26.276-39.6771 28.9167-37.8333 31.5521-36 32.875-33.5729 32.875-30.5625 32.875-27.5625 31.8177-25.1927 29.7083-23.4583 27.6094-21.7188 24.7604-20.526 21.1667-19.875L37.6042 0 30.4792 0.854167 16.25-19.375ZM11.5208-21.2292 15.4583-21.2292C22.8177-21.2292 26.5-24.1302 26.5-29.9375 26.5-30.9062 26.25-32.0104 25.75-33.25 24.8177-35.8177 22.8177-37.5104 19.75-38.3333 16.9688-38.3333 14.2292-37.9844 11.5208-37.2917Z" fill="#121212" transform="matrix(1 0 0 1.00203 762.235 367.599)"/><path d="M1.6875-11.2083 6.39583-11.2083C7.57292-11.2083 8.625-10.9687 9.54167-10.5 10.4688-10.026 11.1875-9.36458 11.6875-8.52083 12.1979-7.67187 12.4583-6.69792 12.4583-5.60417 12.4583-4.50521 12.1979-3.53125 11.6875-2.6875 11.1875-1.83854 10.4688-1.17708 9.54167-0.708333 8.625-0.234375 7.57292 0 6.39583 0L1.6875 0ZM6.3125-1.39583C7.21354-1.39583 8.00521-1.56771 8.6875-1.91667 9.38021-2.27604 9.91667-2.77083 10.2917-3.39583 10.6667-4.03125 10.8542-4.77083 10.8542-5.60417 10.8542-6.4375 10.6667-7.16667 10.2917-7.79167 9.91667-8.42708 9.38021-8.92188 8.6875-9.27083 8.00521-9.63021 7.21354-9.8125 6.3125-9.8125L3.27083-9.8125 3.27083-1.39583Z" fill="#121212" transform="matrix(1 0 0 1.00203 525.669 398.301)"/><path d="M1.6875-11.2083 3.27083-11.2083 3.27083 0 1.6875 0Z" fill="#121212" transform="matrix(1 0 0 1.00203 550.357 398.301)"/><path d="M9.4375-5.66667 10.9792-5.66667 10.9792-1.29167C10.4219-0.833333 9.77604-0.479167 9.04167-0.229167 8.30208 0.00520833 7.53125 0.125 6.72917 0.125 5.60417 0.125 4.58333-0.114583 3.66667-0.604167 2.76042-1.10417 2.05208-1.78125 1.54167-2.64583 1.02604-3.52083 0.770833-4.50521 0.770833-5.60417 0.770833-6.6875 1.02604-7.66667 1.54167-8.54167 2.05208-9.41667 2.77083-10.0938 3.6875-10.5833 4.60417-11.0833 5.63021-11.3333 6.77083-11.3333 7.65625-11.3333 8.46875-11.1875 9.20833-10.8958 9.94271-10.6042 10.5625-10.1719 11.0625-9.60417L10.0833-8.60417C9.17708-9.46354 8.09375-9.89583 6.83333-9.89583 5.96875-9.89583 5.19792-9.70833 4.52083-9.33333 3.85417-8.96875 3.32292-8.46354 2.9375-7.8125 2.5625-7.15625 2.375-6.42187 2.375-5.60417 2.375-4.78125 2.5625-4.04688 2.9375-3.39583 3.32292-2.73958 3.85417-2.22917 4.52083-1.85417 5.19792-1.47917 5.96354-1.29167 6.8125-1.29167 7.8125-1.29167 8.6875-1.53125 9.4375-2.02083Z" fill="#121212" transform="matrix(1 0 0 1.00203 566.789 398.301)"/><path d="M1.6875-11.2083 3.27083-11.2083 3.27083 0 1.6875 0Z" fill="#121212" transform="matrix(1 0 0 1.00203 590.613 398.301)"/><path d="M3.89583-9.8125 0.0625-9.8125 0.0625-11.2083 9.33333-11.2083 9.33333-9.8125 5.47917-9.8125 5.47917 0 3.89583 0Z" fill="#121212" transform="matrix(1 0 0 1.00203 607.045 398.301)"/><path d="M8.8125-2.79167 2.85417-2.79167 1.625 0-0.0208333 0 5.0625-11.2083 6.64583-11.2083 11.7292 0 10.0417 0ZM8.25-4.08333 5.83333-9.5625 3.41667-4.08333Z" fill="#121212" transform="matrix(1 0 0 1.00203 627.909 398.301)"/><path d="M1.6875-11.2083 3.27083-11.2083 3.27083-1.39583 9.35417-1.39583 9.35417 0 1.6875 0Z" fill="#121212" transform="matrix(1 0 0 1.00203 651.093 398.301)"/><path d="M4.9375 0.125C4.10417 0.125 3.29167 0 2.5-0.25 1.71875-0.510416 1.10417-0.854167 0.645833-1.27083L1.25-2.52083C1.67708-2.14583 2.22917-1.83333 2.89583-1.58333 3.5625-1.34375 4.23958-1.22917 4.9375-1.22917 5.86458-1.22917 6.5625-1.38021 7.02083-1.6875 7.47917-2.00521 7.70833-2.42708 7.70833-2.95833 7.70833-3.34375 7.58333-3.65625 7.33333-3.89583 7.08333-4.13021 6.77083-4.3125 6.39583-4.4375 6.03125-4.57292 5.52083-4.71875 4.85417-4.875 4.00521-5.08333 3.32292-5.28125 2.8125-5.47917 2.29687-5.6875 1.85417-6 1.47917-6.41667 1.11458-6.84375 0.9375-7.41667 0.9375-8.125 0.9375-8.71875 1.08854-9.25521 1.39583-9.72917 1.71354-10.2135 2.19271-10.6042 2.83333-10.8958 3.46875-11.1875 4.26042-11.3333 5.20833-11.3333 5.875-11.3333 6.52604-11.2396 7.16667-11.0625 7.80208-10.8958 8.35417-10.651 8.8125-10.3333L8.29167-9.0625C7.81771-9.35417 7.3125-9.57292 6.77083-9.72917 6.23958-9.88021 5.71875-9.95833 5.20833-9.95833 4.30208-9.95833 3.625-9.79167 3.16667-9.45833 2.71875-9.13542 2.5-8.71354 2.5-8.1875 2.5-7.8125 2.625-7.5 2.875-7.25 3.13542-7.01042 3.45833-6.82292 3.83333-6.6875 4.20833-6.5625 4.71875-6.42187 5.375-6.27083 6.21875-6.0625 6.89583-5.85417 7.39583-5.64583 7.90625-5.44792 8.34375-5.14583 8.70833-4.72917 9.08333-4.3125 9.27083-3.75521 9.27083-3.0625 9.27083-2.46354 9.10938-1.92187 8.79167-1.4375 8.46875-0.963541 7.98437-0.583333 7.33333-0.291667 6.69271-0.0104167 5.89583 0.125 4.9375 0.125Z" fill="#121212" transform="matrix(1 0 0 1.00203 687.845 398.301)"/><path d="M6.72917 0.125C5.60417 0.125 4.58333-0.114583 3.66667-0.604167 2.76042-1.10417 2.05208-1.79167 1.54167-2.66667 1.02604-3.54167 0.770833-4.52083 0.770833-5.60417 0.770833-6.67187 1.02604-7.64583 1.54167-8.52083 2.05208-9.39583 2.76042-10.0833 3.66667-10.5833 4.58333-11.0833 5.60417-11.3333 6.72917-11.3333 7.85417-11.3333 8.86458-11.0833 9.77083-10.5833 10.6875-10.0833 11.3958-9.39583 11.8958-8.52083 12.4063-7.65625 12.6667-6.6875 12.6667-5.60417 12.6667-4.50521 12.4063-3.52083 11.8958-2.64583 11.3958-1.78125 10.6875-1.10417 9.77083-0.604167 8.86458-0.114583 7.85417 0.125 6.72917 0.125ZM6.72917-1.29167C7.54687-1.29167 8.28125-1.47917 8.9375-1.85417 9.60417-2.22917 10.125-2.73958 10.5-3.39583 10.875-4.04688 11.0625-4.78125 11.0625-5.60417 11.0625-6.40625 10.875-7.13542 10.5-7.79167 10.125-8.45833 9.60417-8.96875 8.9375-9.33333 8.28125-9.70833 7.54687-9.89583 6.72917-9.89583 5.90625-9.89583 5.16667-9.70833 4.5-9.33333 3.83333-8.96875 3.3125-8.45833 2.9375-7.79167 2.5625-7.13542 2.375-6.40625 2.375-5.60417 2.375-4.78125 2.5625-4.04688 2.9375-3.39583 3.3125-2.73958 3.83333-2.22917 4.5-1.85417 5.16667-1.47917 5.90625-1.29167 6.72917-1.29167Z" fill="#121212" transform="matrix(1 0 0 1.00203 709.253 398.301)"/><path d="M1.6875-11.2083 3.27083-11.2083 3.27083-1.39583 9.35417-1.39583 9.35417 0 1.6875 0Z" fill="#121212" transform="matrix(1 0 0 1.00203 734.165 398.301)"/><path d="M6.3125 0.125C4.82292 0.125 3.66667-0.296875 2.83333-1.14583 2-2.00521 1.58333-3.23437 1.58333-4.83333L1.58333-11.2083 3.1875-11.2083 3.1875-4.89583C3.1875-2.48958 4.23438-1.29167 6.33333-1.29167 7.35937-1.29167 8.14583-1.58333 8.6875-2.16667 9.22917-2.76042 9.5-3.67187 9.5-4.89583L9.5-11.2083 11.0625-11.2083 11.0625-4.83333C11.0625-3.21875 10.6458-1.98958 9.8125-1.14583 8.97917-0.296875 7.8125 0.125 6.3125 0.125Z" fill="#121212" transform="matrix(1 0 0 1.00203 755.141 398.301)"/><path d="M3.89583-9.8125 0.0625-9.8125 0.0625-11.2083 9.33333-11.2083 9.33333-9.8125 5.47917-9.8125 5.47917 0 3.89583 0Z" fill="#121212" transform="matrix(1 0 0 1.00203 779.269 398.301)"/><path d="M1.6875-11.2083 3.27083-11.2083 3.27083 0 1.6875 0Z" fill="#121212" transform="matrix(1 0 0 1.00203 800.133 398.301)"/><path d="M6.72917 0.125C5.60417 0.125 4.58333-0.114583 3.66667-0.604167 2.76042-1.10417 2.05208-1.79167 1.54167-2.66667 1.02604-3.54167 0.770833-4.52083 0.770833-5.60417 0.770833-6.67187 1.02604-7.64583 1.54167-8.52083 2.05208-9.39583 2.76042-10.0833 3.66667-10.5833 4.58333-11.0833 5.60417-11.3333 6.72917-11.3333 7.85417-11.3333 8.86458-11.0833 9.77083-10.5833 10.6875-10.0833 11.3958-9.39583 11.8958-8.52083 12.4063-7.65625 12.6667-6.6875 12.6667-5.60417 12.6667-4.50521 12.4063-3.52083 11.8958-2.64583 11.3958-1.78125 10.6875-1.10417 9.77083-0.604167 8.86458-0.114583 7.85417 0.125 6.72917 0.125ZM6.72917-1.29167C7.54687-1.29167 8.28125-1.47917 8.9375-1.85417 9.60417-2.22917 10.125-2.73958 10.5-3.39583 10.875-4.04688 11.0625-4.78125 11.0625-5.60417 11.0625-6.40625 10.875-7.13542 10.5-7.79167 10.125-8.45833 9.60417-8.96875 8.9375-9.33333 8.28125-9.70833 7.54687-9.89583 6.72917-9.89583 5.90625-9.89583 5.16667-9.70833 4.5-9.33333 3.83333-8.96875 3.3125-8.45833 2.9375-7.79167 2.5625-7.13542 2.375-6.40625 2.375-5.60417 2.375-4.78125 2.5625-4.04688 2.9375-3.39583 3.3125-2.73958 3.83333-2.22917 4.5-1.85417 5.16667-1.47917 5.90625-1.29167 6.72917-1.29167Z" fill="#121212" transform="matrix(1 0 0 1.00203 816.565 398.301)"/><path d="M11.3125-11.2083 11.3125 0 10 0 3.27083-8.35417 3.27083 0 1.6875 0 1.6875-11.2083 3-11.2083 9.70833-2.85417 9.70833-11.2083Z" fill="#121212" transform="matrix(1 0 0 1.00203 841.477 398.301)"/><path d="M4.9375 0.125C4.10417 0.125 3.29167 0 2.5-0.25 1.71875-0.510416 1.10417-0.854167 0.645833-1.27083L1.25-2.52083C1.67708-2.14583 2.22917-1.83333 2.89583-1.58333 3.5625-1.34375 4.23958-1.22917 4.9375-1.22917 5.86458-1.22917 6.5625-1.38021 7.02083-1.6875 7.47917-2.00521 7.70833-2.42708 7.70833-2.95833 7.70833-3.34375 7.58333-3.65625 7.33333-3.89583 7.08333-4.13021 6.77083-4.3125 6.39583-4.4375 6.03125-4.57292 5.52083-4.71875 4.85417-4.875 4.00521-5.08333 3.32292-5.28125 2.8125-5.47917 2.29687-5.6875 1.85417-6 1.47917-6.41667 1.11458-6.84375 0.9375-7.41667 0.9375-8.125 0.9375-8.71875 1.08854-9.25521 1.39583-9.72917 1.71354-10.2135 2.19271-10.6042 2.83333-10.8958 3.46875-11.1875 4.26042-11.3333 5.20833-11.3333 5.875-11.3333 6.52604-11.2396 7.16667-11.0625 7.80208-10.8958 8.35417-10.651 8.8125-10.3333L8.29167-9.0625C7.81771-9.35417 7.3125-9.57292 6.77083-9.72917 6.23958-9.88021 5.71875-9.95833 5.20833-9.95833 4.30208-9.95833 3.625-9.79167 3.16667-9.45833 2.71875-9.13542 2.5-8.71354 2.5-8.1875 2.5-7.8125 2.625-7.5 2.875-7.25 3.13542-7.01042 3.45833-6.82292 3.83333-6.6875 4.20833-6.5625 4.71875-6.42187 5.375-6.27083 6.21875-6.0625 6.89583-5.85417 7.39583-5.64583 7.90625-5.44792 8.34375-5.14583 8.70833-4.72917 9.08333-4.3125 9.27083-3.75521 9.27083-3.0625 9.27083-2.46354 9.10938-1.92187 8.79167-1.4375 8.46875-0.963541 7.98437-0.583333 7.33333-0.291667 6.69271-0.0104167 5.89583 0.125 4.9375 0.125Z" fill="#121212" transform="matrix(1 0 0 1.00203 865.941 398.301)"/><g><path d="M19.7552 288.552 68.6615 203.51 69.8385 203.51 134 315.089C90.8333 315.089 47.6667 315.104 4.49479 315.089L14.8646 297.057 16.0469 297.74 6.85417 313.724 131.646 313.724 69.25 205.214 20.9375 289.234 19.7552 288.552" fill="#605E5C" transform="matrix(1 0 0 1.00203 390 109.21)"/></g><path d="M50.474 220.859 59.4688 236.5 68.4635 220.859 59.4688 205.214ZM41.0833 204.531 49.6875 219.495 58.2917 204.531ZM48.9062 220.859 39.9062 205.214 21.526 237.182 39.5156 237.182ZM58.2917 237.182 49.6875 222.224 41.0885 237.182ZM20.3438 304.536 28.9479 289.578 11.7396 289.578ZM21.526 305.219 116.974 305.219 69.25 222.224C53.3385 249.891 37.4323 277.552 21.526 305.219ZM11.7448 288.214 29.7344 288.214 58.2917 238.552 40.3021 238.552ZM77.8542 203.167 69.25 188.203 60.6458 203.167ZM0 271.885 19.1667 238.552C25.9479 226.755 32.7292 214.958 39.5156 203.167 46.0365 203.167 52.5573 203.161 59.0781 203.167L69.25 185.479 80.2083 204.531 60.6458 204.531C63.6458 209.745 66.6406 214.964 69.6406 220.172L109.552 220.172 89.5938 254.88C99.5052 272.115 109.417 289.354 119.328 306.589L19.9531 306.589 9.78125 288.891 38.7292 238.552 20.7396 238.552 0.786459 273.25ZM129.109 255.557 118.547 255.557 113.26 264.75 107.589 254.88 118.151 236.505ZM116.974 255.562 109.552 255.562 113.26 262.016ZM109.552 254.193C115.286 254.193 121.021 254.193 126.755 254.193L118.151 239.234ZM88.8125 253.516 107.193 221.542 70.4271 221.542 88.8125 253.516" fill="#605E5C" transform="matrix(1 0 0 1.00203 390 109.21)"/><g><path d="M98.5938 205.589C99.5469 205.589 100.323 204.812 100.323 203.849 100.323 202.891 99.5469 202.109 98.5938 202.109 97.6354 202.109 96.8594 202.891 96.8594 203.849 96.8594 204.812 97.6354 205.589 98.5938 205.589ZM49.6875 188.578C50.6458 188.578 51.4219 187.802 51.4219 186.844 51.4219 185.88 50.6458 185.099 49.6875 185.099 48.7344 185.099 47.9583 185.88 47.9583 186.844 47.9583 187.802 48.7344 188.578 49.6875 188.578ZM123.042 282.13C124 282.13 124.776 281.349 124.776 280.391 124.776 279.427 124 278.651 123.042 278.651 122.089 278.651 121.312 279.427 121.312 280.391 121.312 281.349 122.089 282.13 123.042 282.13" fill="#605E5C" fill-rule="evenodd" transform="matrix(1 0 0 1.00203 390 109.21)"/></g></g></svg>