<svg xmlns="http://www.w3.org/2000/svg" xmlns:xlink="http://www.w3.org/1999/xlink" width="500" zoomAndPan="magnify" viewBox="0 0 375 97.5" height="130" preserveAspectRatio="xMidYMid meet" version="1.0"><defs><g/><clipPath id="ef628ff598"><path d="M 4.257812 13.730469 L 100.945312 13.730469 L 100.945312 97.003906 L 4.257812 97.003906 Z M 4.257812 13.730469 " clip-rule="nonzero"/></clipPath><clipPath id="83e05a4740"><path d="M 0.957031 0.0742188 L 98 0.0742188 L 98 91 L 0.957031 91 Z M 0.957031 0.0742188 " clip-rule="nonzero"/></clipPath><clipPath id="107f8f637b"><path d="M 36 0.0742188 L 95 0.0742188 L 95 73 L 36 73 Z M 36 0.0742188 " clip-rule="nonzero"/></clipPath></defs><g fill="#0b1320" fill-opacity="1"><g transform="translate(101.242408, 54.371177)"><g><path d="M 8.609375 -14.46875 L 8.609375 0 L 4.125 0 L 4.125 -30.296875 L 14 -30.296875 C 17.082031 -30.296875 19.609375 -29.609375 21.578125 -28.234375 C 23.546875 -26.859375 24.53125 -25.050781 24.53125 -22.8125 C 24.53125 -20.570312 23.742188 -18.800781 22.171875 -17.5 C 20.597656 -16.207031 18.472656 -15.316406 15.796875 -14.828125 L 28.046875 0 L 22.75 0.640625 L 12.125 -14.46875 Z M 8.609375 -15.828125 L 11.53125 -15.828125 C 17.019531 -15.828125 19.765625 -17.992188 19.765625 -22.328125 C 19.765625 -23.066406 19.582031 -23.894531 19.21875 -24.8125 C 18.519531 -26.726562 17.023438 -27.992188 14.734375 -28.609375 C 12.660156 -28.609375 10.617188 -28.347656 8.609375 -27.828125 Z M 8.609375 -15.828125 "/></g></g></g><g fill="#0b1320" fill-opacity="1"><g transform="translate(136.708065, 54.371177)"><g><path d="M 0.453125 0 L 14.046875 -31.03125 L 14.734375 -31.03125 L 28.328125 0 L 23.34375 0 L 19.90625 -8.234375 L 6.3125 -8.234375 L 2.921875 0 Z M 7 -9.984375 L 19.171875 -9.984375 L 13.140625 -24.8125 Z M 7 -9.984375 "/></g></g></g><g fill="#0b1320" fill-opacity="1"><g transform="translate(171.761866, 54.371177)"><g><path d="M 8.328125 -30.296875 L 8.328125 0 L 4.125 0 L 4.125 -30.296875 Z M 8.328125 -30.296875 "/></g></g></g><g fill="#0b1320" fill-opacity="1"><g transform="translate(190.478823, 54.371177)"><g><path d="M 27.140625 0.5 L 26.359375 0.5 L 6.3125 -24.578125 L 6.125 -24.578125 L 6.125 0 L 4.125 0 L 4.125 -30.296875 L 7.5 -30.296875 L 24.9375 -8.28125 L 25.125 -8.28125 L 25.125 -30.296875 L 27.140625 -30.296875 Z M 27.140625 0.5 "/></g></g></g><g fill="#0b1320" fill-opacity="1"><g transform="translate(228.003744, 54.371177)"><g><path d="M 8.328125 -30.296875 L 8.328125 0 L 4.125 0 L 4.125 -30.296875 Z M 8.328125 -30.296875 "/></g></g></g><g fill="#0b1320" fill-opacity="1"><g transform="translate(246.720701, 54.371177)"><g><path d="M 4.125 0 L 4.125 -30.296875 L 22.46875 -30.296875 L 22.015625 -27.234375 L 13.5 -28.65625 C 12.007812 -28.65625 10.363281 -28.394531 8.5625 -27.875 L 8.5625 -16.75 L 18.71875 -16.75 L 18.71875 -15.015625 L 8.5625 -15.015625 L 8.5625 -1.640625 L 22.75 -3.0625 L 22.28125 0 Z M 4.125 0 "/></g></g></g><g fill="#0b1320" fill-opacity="1"><g transform="translate(278.708481, 54.371177)"><g><path d="M 8.609375 -14.46875 L 8.609375 0 L 4.125 0 L 4.125 -30.296875 L 14 -30.296875 C 17.082031 -30.296875 19.609375 -29.609375 21.578125 -28.234375 C 23.546875 -26.859375 24.53125 -25.050781 24.53125 -22.8125 C 24.53125 -20.570312 23.742188 -18.800781 22.171875 -17.5 C 20.597656 -16.207031 18.472656 -15.316406 15.796875 -14.828125 L 28.046875 0 L 22.75 0.640625 L 12.125 -14.46875 Z M 8.609375 -15.828125 L 11.53125 -15.828125 C 17.019531 -15.828125 19.765625 -17.992188 19.765625 -22.328125 C 19.765625 -23.066406 19.582031 -23.894531 19.21875 -24.8125 C 18.519531 -26.726562 17.023438 -27.992188 14.734375 -28.609375 C 12.660156 -28.609375 10.617188 -28.347656 8.609375 -27.828125 Z M 8.609375 -15.828125 "/></g></g></g><g fill="#0b1320" fill-opacity="1"><g transform="translate(102.177675, 77.233954)"><g><path d="M 1.25 -8.359375 L 4.78125 -8.359375 C 5.65625 -8.359375 6.4375 -8.179688 7.125 -7.828125 C 7.8125 -7.484375 8.34375 -6.992188 8.71875 -6.359375 C 9.09375 -5.722656 9.28125 -4.992188 9.28125 -4.171875 C 9.28125 -3.359375 9.09375 -2.632812 8.71875 -2 C 8.34375 -1.363281 7.8125 -0.867188 7.125 -0.515625 C 6.4375 -0.171875 5.65625 0 4.78125 0 L 1.25 0 Z M 4.703125 -1.03125 C 5.378906 -1.03125 5.972656 -1.160156 6.484375 -1.421875 C 7.003906 -1.691406 7.398438 -2.0625 7.671875 -2.53125 C 7.953125 -3.007812 8.09375 -3.554688 8.09375 -4.171875 C 8.09375 -4.796875 7.953125 -5.34375 7.671875 -5.8125 C 7.398438 -6.289062 7.003906 -6.660156 6.484375 -6.921875 C 5.972656 -7.179688 5.378906 -7.3125 4.703125 -7.3125 L 2.453125 -7.3125 L 2.453125 -1.03125 Z M 4.703125 -1.03125 "/></g></g></g><g fill="#0b1320" fill-opacity="1"><g transform="translate(120.599231, 77.233954)"><g><path d="M 1.25 -8.359375 L 2.453125 -8.359375 L 2.453125 0 L 1.25 0 Z M 1.25 -8.359375 "/></g></g></g><g fill="#0b1320" fill-opacity="1"><g transform="translate(132.860358, 77.233954)"><g><path d="M 7.046875 -4.21875 L 8.1875 -4.21875 L 8.1875 -0.96875 C 7.769531 -0.625 7.285156 -0.359375 6.734375 -0.171875 C 6.191406 0.00390625 5.625 0.09375 5.03125 0.09375 C 4.1875 0.09375 3.425781 -0.0859375 2.75 -0.453125 C 2.070312 -0.828125 1.539062 -1.335938 1.15625 -1.984375 C 0.769531 -2.628906 0.578125 -3.359375 0.578125 -4.171875 C 0.578125 -4.984375 0.769531 -5.71875 1.15625 -6.375 C 1.539062 -7.03125 2.070312 -7.539062 2.75 -7.90625 C 3.425781 -8.269531 4.191406 -8.453125 5.046875 -8.453125 C 5.710938 -8.453125 6.316406 -8.34375 6.859375 -8.125 C 7.410156 -7.90625 7.878906 -7.582031 8.265625 -7.15625 L 7.515625 -6.421875 C 6.847656 -7.066406 6.039062 -7.390625 5.09375 -7.390625 C 4.457031 -7.390625 3.882812 -7.25 3.375 -6.96875 C 2.875 -6.695312 2.476562 -6.316406 2.1875 -5.828125 C 1.90625 -5.335938 1.765625 -4.785156 1.765625 -4.171875 C 1.765625 -3.566406 1.90625 -3.019531 2.1875 -2.53125 C 2.476562 -2.039062 2.875 -1.65625 3.375 -1.375 C 3.882812 -1.101562 4.453125 -0.96875 5.078125 -0.96875 C 5.828125 -0.96875 6.484375 -1.144531 7.046875 -1.5 Z M 7.046875 -4.21875 "/></g></g></g><g fill="#0b1320" fill-opacity="1"><g transform="translate(150.637208, 77.233954)"><g><path d="M 1.25 -8.359375 L 2.453125 -8.359375 L 2.453125 0 L 1.25 0 Z M 1.25 -8.359375 "/></g></g></g><g fill="#0b1320" fill-opacity="1"><g transform="translate(162.898335, 77.233954)"><g><path d="M 2.90625 -7.3125 L 0.046875 -7.3125 L 0.046875 -8.359375 L 6.953125 -8.359375 L 6.953125 -7.3125 L 4.09375 -7.3125 L 4.09375 0 L 2.90625 0 Z M 2.90625 -7.3125 "/></g></g></g><g fill="#0b1320" fill-opacity="1"><g transform="translate(178.466509, 77.233954)"><g><path d="M 6.578125 -2.09375 L 2.140625 -2.09375 L 1.21875 0 L -0.015625 0 L 3.765625 -8.359375 L 4.953125 -8.359375 L 8.75 0 L 7.5 0 Z M 6.15625 -3.046875 L 4.359375 -7.140625 L 2.546875 -3.046875 Z M 6.15625 -3.046875 "/></g></g></g><g fill="#0b1320" fill-opacity="1"><g transform="translate(195.765809, 77.233954)"><g><path d="M 1.25 -8.359375 L 2.453125 -8.359375 L 2.453125 -1.03125 L 6.96875 -1.03125 L 6.96875 0 L 1.25 0 Z M 1.25 -8.359375 "/></g></g></g><g fill="#0b1320" fill-opacity="1"><g transform="translate(211.417553, 77.233954)"><g/></g></g><g fill="#0b1320" fill-opacity="1"><g transform="translate(223.189197, 77.233954)"><g><path d="M 3.6875 0.09375 C 3.0625 0.09375 2.453125 0 1.859375 -0.1875 C 1.273438 -0.382812 0.816406 -0.640625 0.484375 -0.953125 L 0.9375 -1.890625 C 1.25 -1.597656 1.65625 -1.363281 2.15625 -1.1875 C 2.65625 -1.007812 3.164062 -0.921875 3.6875 -0.921875 C 4.382812 -0.921875 4.898438 -1.035156 5.234375 -1.265625 C 5.578125 -1.503906 5.75 -1.816406 5.75 -2.203125 C 5.75 -2.492188 5.65625 -2.726562 5.46875 -2.90625 C 5.28125 -3.082031 5.050781 -3.21875 4.78125 -3.3125 C 4.507812 -3.414062 4.117188 -3.523438 3.609375 -3.640625 C 2.984375 -3.796875 2.476562 -3.945312 2.09375 -4.09375 C 1.707031 -4.25 1.375 -4.484375 1.09375 -4.796875 C 0.820312 -5.109375 0.6875 -5.53125 0.6875 -6.0625 C 0.6875 -6.507812 0.800781 -6.910156 1.03125 -7.265625 C 1.269531 -7.628906 1.628906 -7.914062 2.109375 -8.125 C 2.585938 -8.34375 3.179688 -8.453125 3.890625 -8.453125 C 4.378906 -8.453125 4.863281 -8.382812 5.34375 -8.25 C 5.820312 -8.125 6.234375 -7.945312 6.578125 -7.71875 L 6.1875 -6.75 C 5.832031 -6.976562 5.457031 -7.148438 5.0625 -7.265625 C 4.664062 -7.378906 4.273438 -7.4375 3.890625 -7.4375 C 3.210938 -7.4375 2.703125 -7.3125 2.359375 -7.0625 C 2.023438 -6.820312 1.859375 -6.503906 1.859375 -6.109375 C 1.859375 -5.828125 1.953125 -5.59375 2.140625 -5.40625 C 2.335938 -5.226562 2.578125 -5.085938 2.859375 -4.984375 C 3.140625 -4.890625 3.523438 -4.785156 4.015625 -4.671875 C 4.640625 -4.523438 5.140625 -4.375 5.515625 -4.21875 C 5.898438 -4.070312 6.226562 -3.84375 6.5 -3.53125 C 6.78125 -3.21875 6.921875 -2.800781 6.921875 -2.28125 C 6.921875 -1.84375 6.800781 -1.441406 6.5625 -1.078125 C 6.320312 -0.710938 5.957031 -0.425781 5.46875 -0.21875 C 4.988281 -0.0078125 4.394531 0.09375 3.6875 0.09375 Z M 3.6875 0.09375 "/></g></g></g><g fill="#0b1320" fill-opacity="1"><g transform="translate(239.163293, 77.233954)"><g><path d="M 5.03125 0.09375 C 4.1875 0.09375 3.425781 -0.0859375 2.75 -0.453125 C 2.070312 -0.828125 1.539062 -1.335938 1.15625 -1.984375 C 0.769531 -2.640625 0.578125 -3.367188 0.578125 -4.171875 C 0.578125 -4.984375 0.769531 -5.710938 1.15625 -6.359375 C 1.539062 -7.015625 2.070312 -7.523438 2.75 -7.890625 C 3.425781 -8.265625 4.1875 -8.453125 5.03125 -8.453125 C 5.863281 -8.453125 6.617188 -8.265625 7.296875 -7.890625 C 7.972656 -7.523438 8.5 -7.015625 8.875 -6.359375 C 9.257812 -5.710938 9.453125 -4.984375 9.453125 -4.171875 C 9.453125 -3.359375 9.257812 -2.628906 8.875 -1.984375 C 8.5 -1.335938 7.972656 -0.828125 7.296875 -0.453125 C 6.617188 -0.0859375 5.863281 0.09375 5.03125 0.09375 Z M 5.03125 -0.96875 C 5.632812 -0.96875 6.179688 -1.101562 6.671875 -1.375 C 7.160156 -1.65625 7.546875 -2.039062 7.828125 -2.53125 C 8.117188 -3.019531 8.265625 -3.566406 8.265625 -4.171875 C 8.265625 -4.773438 8.117188 -5.320312 7.828125 -5.8125 C 7.546875 -6.300781 7.160156 -6.6875 6.671875 -6.96875 C 6.179688 -7.25 5.632812 -7.390625 5.03125 -7.390625 C 4.414062 -7.390625 3.859375 -7.25 3.359375 -6.96875 C 2.859375 -6.6875 2.46875 -6.300781 2.1875 -5.8125 C 1.90625 -5.320312 1.765625 -4.773438 1.765625 -4.171875 C 1.765625 -3.566406 1.90625 -3.019531 2.1875 -2.53125 C 2.46875 -2.039062 2.859375 -1.65625 3.359375 -1.375 C 3.859375 -1.101562 4.414062 -0.96875 5.03125 -0.96875 Z M 5.03125 -0.96875 "/></g></g></g><g fill="#0b1320" fill-opacity="1"><g transform="translate(257.75199, 77.233954)"><g><path d="M 1.25 -8.359375 L 2.453125 -8.359375 L 2.453125 -1.03125 L 6.96875 -1.03125 L 6.96875 0 L 1.25 0 Z M 1.25 -8.359375 "/></g></g></g><g fill="#0b1320" fill-opacity="1"><g transform="translate(273.403734, 77.233954)"><g><path d="M 4.71875 0.09375 C 3.601562 0.09375 2.734375 -0.222656 2.109375 -0.859375 C 1.492188 -1.492188 1.1875 -2.410156 1.1875 -3.609375 L 1.1875 -8.359375 L 2.375 -8.359375 L 2.375 -3.65625 C 2.375 -1.863281 3.160156 -0.96875 4.734375 -0.96875 C 5.492188 -0.96875 6.078125 -1.1875 6.484375 -1.625 C 6.890625 -2.070312 7.09375 -2.75 7.09375 -3.65625 L 7.09375 -8.359375 L 8.25 -8.359375 L 8.25 -3.609375 C 8.25 -2.398438 7.9375 -1.476562 7.3125 -0.84375 C 6.695312 -0.21875 5.832031 0.09375 4.71875 0.09375 Z M 4.71875 0.09375 "/></g></g></g><g fill="#0b1320" fill-opacity="1"><g transform="translate(291.407423, 77.233954)"><g><path d="M 2.90625 -7.3125 L 0.046875 -7.3125 L 0.046875 -8.359375 L 6.953125 -8.359375 L 6.953125 -7.3125 L 4.09375 -7.3125 L 4.09375 0 L 2.90625 0 Z M 2.90625 -7.3125 "/></g></g></g><g fill="#0b1320" fill-opacity="1"><g transform="translate(306.975596, 77.233954)"><g><path d="M 1.25 -8.359375 L 2.453125 -8.359375 L 2.453125 0 L 1.25 0 Z M 1.25 -8.359375 "/></g></g></g><g fill="#0b1320" fill-opacity="1"><g transform="translate(319.236723, 77.233954)"><g><path d="M 5.03125 0.09375 C 4.1875 0.09375 3.425781 -0.0859375 2.75 -0.453125 C 2.070312 -0.828125 1.539062 -1.335938 1.15625 -1.984375 C 0.769531 -2.640625 0.578125 -3.367188 0.578125 -4.171875 C 0.578125 -4.984375 0.769531 -5.710938 1.15625 -6.359375 C 1.539062 -7.015625 2.070312 -7.523438 2.75 -7.890625 C 3.425781 -8.265625 4.1875 -8.453125 5.03125 -8.453125 C 5.863281 -8.453125 6.617188 -8.265625 7.296875 -7.890625 C 7.972656 -7.523438 8.5 -7.015625 8.875 -6.359375 C 9.257812 -5.710938 9.453125 -4.984375 9.453125 -4.171875 C 9.453125 -3.359375 9.257812 -2.628906 8.875 -1.984375 C 8.5 -1.335938 7.972656 -0.828125 7.296875 -0.453125 C 6.617188 -0.0859375 5.863281 0.09375 5.03125 0.09375 Z M 5.03125 -0.96875 C 5.632812 -0.96875 6.179688 -1.101562 6.671875 -1.375 C 7.160156 -1.65625 7.546875 -2.039062 7.828125 -2.53125 C 8.117188 -3.019531 8.265625 -3.566406 8.265625 -4.171875 C 8.265625 -4.773438 8.117188 -5.320312 7.828125 -5.8125 C 7.546875 -6.300781 7.160156 -6.6875 6.671875 -6.96875 C 6.179688 -7.25 5.632812 -7.390625 5.03125 -7.390625 C 4.414062 -7.390625 3.859375 -7.25 3.359375 -6.96875 C 2.859375 -6.6875 2.46875 -6.300781 2.1875 -5.8125 C 1.90625 -5.320312 1.765625 -4.773438 1.765625 -4.171875 C 1.765625 -3.566406 1.90625 -3.019531 2.1875 -2.53125 C 2.46875 -2.039062 2.859375 -1.65625 3.359375 -1.375 C 3.859375 -1.101562 4.414062 -0.96875 5.03125 -0.96875 Z M 5.03125 -0.96875 "/></g></g></g><g fill="#0b1320" fill-opacity="1"><g transform="translate(337.825431, 77.233954)"><g><path d="M 8.4375 -8.359375 L 8.4375 0 L 7.46875 0 L 2.453125 -6.234375 L 2.453125 0 L 1.25 0 L 1.25 -8.359375 L 2.234375 -8.359375 L 7.25 -2.125 L 7.25 -8.359375 Z M 8.4375 -8.359375 "/></g></g></g><g fill="#0b1320" fill-opacity="1"><g transform="translate(356.079833, 77.233954)"><g><path d="M 3.6875 0.09375 C 3.0625 0.09375 2.453125 0 1.859375 -0.1875 C 1.273438 -0.382812 0.816406 -0.640625 0.484375 -0.953125 L 0.9375 -1.890625 C 1.25 -1.597656 1.65625 -1.363281 2.15625 -1.1875 C 2.65625 -1.007812 3.164062 -0.921875 3.6875 -0.921875 C 4.382812 -0.921875 4.898438 -1.035156 5.234375 -1.265625 C 5.578125 -1.503906 5.75 -1.816406 5.75 -2.203125 C 5.75 -2.492188 5.65625 -2.726562 5.46875 -2.90625 C 5.28125 -3.082031 5.050781 -3.21875 4.78125 -3.3125 C 4.507812 -3.414062 4.117188 -3.523438 3.609375 -3.640625 C 2.984375 -3.796875 2.476562 -3.945312 2.09375 -4.09375 C 1.707031 -4.25 1.375 -4.484375 1.09375 -4.796875 C 0.820312 -5.109375 0.6875 -5.53125 0.6875 -6.0625 C 0.6875 -6.507812 0.800781 -6.910156 1.03125 -7.265625 C 1.269531 -7.628906 1.628906 -7.914062 2.109375 -8.125 C 2.585938 -8.34375 3.179688 -8.453125 3.890625 -8.453125 C 4.378906 -8.453125 4.863281 -8.382812 5.34375 -8.25 C 5.820312 -8.125 6.234375 -7.945312 6.578125 -7.71875 L 6.1875 -6.75 C 5.832031 -6.976562 5.457031 -7.148438 5.0625 -7.265625 C 4.664062 -7.378906 4.273438 -7.4375 3.890625 -7.4375 C 3.210938 -7.4375 2.703125 -7.3125 2.359375 -7.0625 C 2.023438 -6.820312 1.859375 -6.503906 1.859375 -6.109375 C 1.859375 -5.828125 1.953125 -5.59375 2.140625 -5.40625 C 2.335938 -5.226562 2.578125 -5.085938 2.859375 -4.984375 C 3.140625 -4.890625 3.523438 -4.785156 4.015625 -4.671875 C 4.640625 -4.523438 5.140625 -4.375 5.515625 -4.21875 C 5.898438 -4.070312 6.226562 -3.84375 6.5 -3.53125 C 6.78125 -3.21875 6.921875 -2.800781 6.921875 -2.28125 C 6.921875 -1.84375 6.800781 -1.441406 6.5625 -1.078125 C 6.320312 -0.710938 5.957031 -0.425781 5.46875 -0.21875 C 4.988281 -0.0078125 4.394531 0.09375 3.6875 0.09375 Z M 3.6875 0.09375 "/></g></g></g><g clip-path="url(#ef628ff598)"><path fill="#0b1320" d="M 15.699219 77.269531 L 52.191406 13.8125 L 53.066406 13.8125 L 100.945312 97.070312 C 68.734375 97.070312 36.523438 97.078125 4.3125 97.070312 L 12.050781 83.613281 L 12.929688 84.125 L 6.070312 96.050781 L 99.1875 96.050781 L 52.628906 15.082031 L 16.578125 77.777344 L 15.699219 77.269531 " fill-opacity="1" fill-rule="nonzero"/></g><g clip-path="url(#83e05a4740)"><path fill="#0b1320" d="M 38.617188 26.757812 L 45.332031 38.429688 L 52.042969 26.757812 L 45.332031 15.082031 Z M 31.613281 14.574219 L 38.03125 25.738281 L 44.453125 14.574219 Z M 37.449219 26.757812 L 30.734375 15.082031 L 17.019531 38.9375 L 30.445312 38.9375 Z M 44.453125 38.9375 L 38.03125 27.773438 L 31.613281 38.9375 Z M 16.136719 89.195312 L 22.558594 78.03125 L 9.71875 78.03125 Z M 17.015625 89.703125 L 88.238281 89.703125 L 52.628906 27.777344 C 40.757812 48.417969 28.886719 69.0625 17.015625 89.703125 Z M 9.71875 77.015625 L 23.140625 77.011719 L 44.449219 39.960938 L 31.027344 39.960938 Z M 59.050781 13.554688 L 52.628906 2.390625 L 46.207031 13.554688 Z M 0.957031 64.832031 L 15.261719 39.960938 C 20.320312 31.15625 25.378906 22.355469 30.441406 13.554688 C 35.308594 13.554688 40.171875 13.554688 45.039062 13.554688 L 52.628906 0.355469 L 60.804688 14.574219 L 46.207031 14.574219 C 48.445312 18.464844 50.683594 22.355469 52.921875 26.246094 L 82.699219 26.246094 L 67.808594 52.140625 C 75.203125 65.003906 82.601562 77.867188 89.996094 90.726562 L 15.847656 90.726562 L 8.253906 77.523438 L 29.855469 39.960938 L 16.429688 39.960938 L 1.542969 65.851562 Z M 97.296875 52.648438 L 89.414062 52.648438 L 85.46875 59.503906 L 81.234375 52.140625 L 89.121094 38.429688 Z M 88.238281 52.652344 L 82.703125 52.652344 L 85.46875 57.464844 Z M 82.699219 51.628906 C 86.980469 51.628906 91.257812 51.628906 95.539062 51.628906 L 89.121094 40.464844 Z M 67.222656 51.125 L 80.941406 27.269531 L 53.507812 27.269531 L 67.222656 51.125 " fill-opacity="1" fill-rule="nonzero"/></g><g clip-path="url(#107f8f637b)"><path fill="#0b1320" d="M 74.523438 15.363281 C 75.238281 15.363281 75.816406 14.78125 75.816406 14.066406 C 75.816406 13.347656 75.238281 12.765625 74.523438 12.765625 C 73.808594 12.765625 73.230469 13.347656 73.230469 14.066406 C 73.230469 14.78125 73.808594 15.363281 74.523438 15.363281 Z M 38.03125 2.671875 C 38.746094 2.671875 39.324219 2.089844 39.324219 1.375 C 39.324219 0.65625 38.746094 0.0742188 38.03125 0.0742188 C 37.320312 0.0742188 36.742188 0.65625 36.742188 1.375 C 36.742188 2.089844 37.320312 2.671875 38.03125 2.671875 Z M 92.769531 72.476562 C 93.480469 72.476562 94.0625 71.894531 94.0625 71.175781 C 94.0625 70.460938 93.480469 69.878906 92.769531 69.878906 C 92.054688 69.878906 91.476562 70.460938 91.476562 71.175781 C 91.476562 71.894531 92.054688 72.476562 92.769531 72.476562 " fill-opacity="1" fill-rule="evenodd"/></g></svg>