<svg width="344" height="343" xmlns="http://www.w3.org/2000/svg" xmlns:xlink="http://www.w3.org/1999/xlink" xml:space="preserve" overflow="hidden"><defs><clipPath id="clip0"><rect x="468" y="154" width="344" height="343"/></clipPath></defs><g clip-path="url(#clip0)" transform="translate(-468 -154)"><g><path d="M128.81 347.974 254.279 130.913 257.303 130.913 421.921 415.706C311.168 415.706 200.409 415.737 89.6561 415.7L116.26 369.675 119.285 371.424 95.6994 412.218 415.883 412.223 255.788 135.26 131.835 349.708 128.81 347.974" fill="#605E5C" transform="matrix(1.00292 0 0 1 389.417 74.3764)"/></g><g><path d="M207.613 175.19 230.694 215.119 253.774 175.19 230.699 135.26ZM183.528 133.521 205.604 171.707 227.68 133.521ZM203.59 175.19 180.509 135.26 133.344 216.853 179.51 216.853ZM227.675 216.853 205.604 178.672 183.534 216.853ZM130.32 388.773 152.396 350.582 108.244 350.582ZM133.344 390.507 378.238 390.507 255.794 178.677C214.974 249.292 174.159 319.897 133.344 390.507ZM108.249 347.1 154.405 347.1 227.669 220.351 181.514 220.351ZM277.864 130.039 255.788 91.8475 233.713 130.039ZM78.1211 305.431 127.301 220.351C144.697 190.243 162.088 160.136 179.505 130.034 196.235 130.034 212.964 130.023 229.694 130.034L255.794 84.8828 283.902 133.521 233.713 133.521C241.406 146.826 249.1 160.141 256.793 173.446L359.192 173.446 307.987 262.019C333.415 306.02 358.843 350.015 384.281 394.005L129.315 394.005 103.211 348.838 177.485 220.351 131.324 220.351 80.1304 308.914ZM409.371 263.758 382.272 263.758 368.712 287.213 354.153 262.019 381.262 215.125ZM378.233 263.763 359.192 263.763 368.712 280.232ZM359.186 260.27C373.907 260.27 388.617 260.275 403.333 260.275L381.262 222.084ZM305.978 258.542 353.143 176.939 258.813 176.939 305.978 258.542" fill="#605E5C" transform="matrix(1.00292 0 0 1 389.417 74.3764)"/></g><g><path d="M331.073 136.217C333.524 136.217 335.518 134.229 335.518 131.777 335.518 129.326 333.524 127.337 331.073 127.337 328.621 127.337 326.627 129.326 326.627 131.777 326.627 134.229 328.621 136.217 331.073 136.217ZM205.604 92.8053C208.056 92.8053 210.049 90.8168 210.049 88.3651 210.049 85.9135 208.056 83.925 205.604 83.925 203.147 83.925 201.159 85.9135 201.159 88.3651 201.159 90.8168 203.147 92.8053 205.604 92.8053ZM393.807 331.578C396.264 331.578 398.252 329.589 398.252 327.137 398.252 324.686 396.264 322.697 393.807 322.697 391.35 322.697 389.362 324.686 389.362 327.137 389.362 329.589 391.35 331.578 393.807 331.578" fill="#605E5C" fill-rule="evenodd" transform="matrix(1.00292 0 0 1 389.417 74.3764)"/></g></g></svg>